G04 Layer_Color=8388736*
%FSLAX24Y24*%
%MOIN*%
G70*
G01*
G75*
%ADD30R,0.0316X0.0257*%
%ADD31R,0.0355X0.0375*%
%ADD32R,0.0296X0.0257*%
%ADD33R,0.0769X0.0454*%
%ADD34R,0.0434X0.0395*%
%ADD35R,0.1438X0.1438*%
%ADD36O,0.0395X0.0178*%
%ADD37O,0.0178X0.0395*%
%ADD38R,0.0375X0.0355*%
%ADD39R,0.0257X0.0296*%
%ADD40C,0.0300*%
D30*
X-1237Y2380D02*
D03*
X-863D02*
D03*
X1826Y-397D02*
D03*
X2200D02*
D03*
D31*
X-114Y2780D02*
D03*
X-646D02*
D03*
X-1704Y770D02*
D03*
X-2236D02*
D03*
D32*
X-73Y2380D02*
D03*
X-467D02*
D03*
X-2547Y-1790D02*
D03*
X-2153D02*
D03*
X-2547Y10D02*
D03*
X-2153D02*
D03*
X1947Y820D02*
D03*
X1553D02*
D03*
X1553Y480D02*
D03*
X1947D02*
D03*
X-2057Y360D02*
D03*
X-1663D02*
D03*
D33*
X-2340Y-398D02*
D03*
Y-1382D02*
D03*
D34*
X2135Y1454D02*
D03*
Y1906D02*
D03*
X1565D02*
D03*
Y1454D02*
D03*
D35*
X-0Y0D02*
D03*
D36*
X-965Y689D02*
D03*
Y492D02*
D03*
Y295D02*
D03*
Y98D02*
D03*
Y-98D02*
D03*
Y-295D02*
D03*
Y-492D02*
D03*
Y-689D02*
D03*
X965D02*
D03*
Y-492D02*
D03*
Y-295D02*
D03*
Y-98D02*
D03*
Y98D02*
D03*
Y295D02*
D03*
Y492D02*
D03*
Y689D02*
D03*
D37*
X-689Y-965D02*
D03*
X-492D02*
D03*
X-295D02*
D03*
X-98D02*
D03*
X98D02*
D03*
X295D02*
D03*
X492D02*
D03*
X689D02*
D03*
Y965D02*
D03*
X492D02*
D03*
X295D02*
D03*
X98D02*
D03*
X-98D02*
D03*
X-295D02*
D03*
X-492D02*
D03*
X-689D02*
D03*
D38*
X-730Y1444D02*
D03*
Y1976D02*
D03*
D39*
X800Y1877D02*
D03*
Y1483D02*
D03*
X-800Y-1807D02*
D03*
Y-1413D02*
D03*
X1453Y-394D02*
D03*
Y-0D02*
D03*
X1150Y1877D02*
D03*
Y1483D02*
D03*
X2550Y1483D02*
D03*
Y1877D02*
D03*
D40*
X472Y472D02*
D03*
Y0D02*
D03*
Y-472D02*
D03*
X0D02*
D03*
X-472D02*
D03*
Y0D02*
D03*
Y472D02*
D03*
X0D02*
D03*
Y0D02*
D03*
M02*
