G04 Layer_Color=65535*
%FSLAX24Y24*%
%MOIN*%
G70*
G01*
G75*
%ADD23C,0.0060*%
%ADD27C,0.0098*%
%ADD28C,0.0079*%
%ADD29C,0.0059*%
D23*
X-696Y2242D02*
Y2518D01*
X-1404Y2242D02*
Y2518D01*
X-1148D01*
X-952D02*
X-696D01*
X-1404Y2242D02*
X-1148D01*
X-952D02*
X-696D01*
X-843Y2977D02*
X-478D01*
X-282D02*
X83D01*
X-843Y2583D02*
X-478D01*
X-282D02*
X83D01*
Y2977D01*
X-843Y2583D02*
Y2977D01*
X-172Y2242D02*
X84D01*
X-624D02*
X-368D01*
X-172Y2518D02*
X84D01*
X-624D02*
X-368D01*
X-624Y2242D02*
Y2518D01*
X84Y2242D02*
Y2518D01*
X2275Y1656D02*
Y1704D01*
X1787Y1334D02*
X1913D01*
X1425Y1656D02*
Y1704D01*
X1787Y2026D02*
X1913D01*
X-927Y1247D02*
Y1612D01*
Y1808D02*
Y2173D01*
X-533Y1247D02*
Y1612D01*
Y1808D02*
Y2173D01*
X-927Y1247D02*
X-533D01*
X-927Y2173D02*
X-533D01*
X2367Y-535D02*
Y-259D01*
X1659Y-535D02*
Y-259D01*
X1915D01*
X2112D02*
X2367D01*
X1659Y-535D02*
X1915D01*
X2112D02*
X2367D01*
X-2704Y-1652D02*
X-2448D01*
X-2252D02*
X-1996D01*
X-2704Y-1928D02*
X-2448D01*
X-2252D02*
X-1996D01*
Y-1652D01*
X-2704Y-1928D02*
Y-1652D01*
Y148D02*
X-2448D01*
X-2252D02*
X-1996D01*
X-2704Y-128D02*
X-2448D01*
X-2252D02*
X-1996D01*
Y148D01*
X-2704Y-128D02*
Y148D01*
X-2433Y967D02*
X-2068D01*
X-1872D02*
X-1507D01*
X-2433Y573D02*
X-2068D01*
X-1872D02*
X-1507D01*
Y967D01*
X-2433Y573D02*
Y967D01*
X938Y1778D02*
Y2034D01*
Y1326D02*
Y1582D01*
X662Y1778D02*
Y2034D01*
Y1326D02*
Y1582D01*
Y1326D02*
X938D01*
X662Y2034D02*
X938D01*
X1848Y682D02*
X2104D01*
X1396D02*
X1652D01*
X1848Y958D02*
X2104D01*
X1396D02*
X1652D01*
X1396Y682D02*
Y958D01*
X2104Y682D02*
Y958D01*
X1396Y618D02*
X1652D01*
X1848D02*
X2104D01*
X1396Y342D02*
X1652D01*
X1848D02*
X2104D01*
Y618D01*
X1396Y342D02*
Y618D01*
X-938Y-1964D02*
Y-1708D01*
Y-1512D02*
Y-1256D01*
X-662Y-1964D02*
Y-1708D01*
Y-1512D02*
Y-1256D01*
X-938D02*
X-662D01*
X-938Y-1964D02*
X-662D01*
X-2214Y498D02*
X-1958D01*
X-1762D02*
X-1506D01*
X-2214Y222D02*
X-1958D01*
X-1762D02*
X-1506D01*
Y498D01*
X-2214Y222D02*
Y498D01*
X1315Y-551D02*
Y-295D01*
Y-98D02*
Y158D01*
X1591Y-551D02*
Y-295D01*
Y-98D02*
Y158D01*
X1315D02*
X1591D01*
X1315Y-551D02*
X1591D01*
X1288Y1778D02*
Y2034D01*
Y1326D02*
Y1582D01*
X1012Y1778D02*
Y2034D01*
Y1326D02*
Y1582D01*
Y1326D02*
X1288D01*
X1012Y2034D02*
X1288D01*
X2412Y1326D02*
Y1582D01*
Y1778D02*
Y2034D01*
X2688Y1326D02*
Y1582D01*
Y1778D02*
Y2034D01*
X2412D02*
X2688D01*
X2412Y1326D02*
X2688D01*
X-2143Y2512D02*
Y2242D01*
X-1963D01*
X-1873Y2467D02*
X-1828Y2512D01*
X-1738D01*
X-1693Y2467D01*
Y2422D01*
X-1738Y2377D01*
X-1783D01*
X-1738D01*
X-1693Y2332D01*
Y2287D01*
X-1738Y2242D01*
X-1828D01*
X-1873Y2287D01*
X-280Y2115D02*
X-325Y2160D01*
X-415D01*
X-460Y2115D01*
Y1935D01*
X-415Y1890D01*
X-325D01*
X-280Y1935D01*
X-190Y1890D02*
X-100D01*
X-145D01*
Y2160D01*
X-190Y2115D01*
X35D02*
X80Y2160D01*
X170D01*
X215Y2115D01*
Y2070D01*
X170Y2025D01*
X125D01*
X170D01*
X215Y1980D01*
Y1935D01*
X170Y1890D01*
X80D01*
X35Y1935D01*
X1831Y-825D02*
Y-1095D01*
X2011D01*
X2100D02*
X2190D01*
X2145D01*
Y-825D01*
X2100Y-870D01*
X1366Y-1115D02*
X1321Y-1160D01*
Y-1250D01*
X1366Y-1295D01*
X1546D01*
X1591Y-1250D01*
Y-1160D01*
X1546Y-1115D01*
X1366Y-1025D02*
X1321Y-980D01*
Y-890D01*
X1366Y-845D01*
X1411D01*
X1456Y-890D01*
Y-935D01*
Y-890D01*
X1501Y-845D01*
X1546D01*
X1591Y-890D01*
Y-980D01*
X1546Y-1025D01*
X-1703Y107D02*
X-1748Y152D01*
X-1838D01*
X-1883Y107D01*
Y-73D01*
X-1838Y-118D01*
X-1748D01*
X-1703Y-73D01*
X-1613Y-118D02*
X-1523D01*
X-1568D01*
Y152D01*
X-1613Y107D01*
X-1388Y-118D02*
X-1298D01*
X-1343D01*
Y152D01*
X-1388Y107D01*
X-1703Y-1693D02*
X-1748Y-1648D01*
X-1838D01*
X-1883Y-1693D01*
Y-1873D01*
X-1838Y-1918D01*
X-1748D01*
X-1703Y-1873D01*
X-1613Y-1918D02*
X-1523D01*
X-1568D01*
Y-1648D01*
X-1613Y-1693D01*
X-1208Y-1918D02*
X-1388D01*
X-1208Y-1738D01*
Y-1693D01*
X-1253Y-1648D01*
X-1343D01*
X-1388Y-1693D01*
X-1873Y-748D02*
X-1693Y-1018D01*
Y-748D02*
X-1873Y-1018D01*
X-1423D02*
X-1603D01*
X-1423Y-838D01*
Y-793D01*
X-1468Y-748D01*
X-1558D01*
X-1603Y-793D01*
X-190Y1530D02*
Y1305D01*
X-145Y1260D01*
X-55D01*
X-10Y1305D01*
Y1530D01*
X80Y1260D02*
X170D01*
X125D01*
Y1530D01*
X80Y1485D01*
X1063Y2505D02*
X1018Y2460D01*
Y2370D01*
X1063Y2325D01*
X1243D01*
X1288Y2370D01*
Y2460D01*
X1243Y2505D01*
X1288Y2775D02*
Y2595D01*
X1108Y2775D01*
X1063D01*
X1018Y2730D01*
Y2640D01*
X1063Y2595D01*
X2577Y567D02*
X2532Y612D01*
X2442D01*
X2397Y567D01*
Y387D01*
X2442Y342D01*
X2532D01*
X2577Y387D01*
X2847Y612D02*
X2757Y567D01*
X2667Y477D01*
Y387D01*
X2712Y342D01*
X2802D01*
X2847Y387D01*
Y432D01*
X2802Y477D01*
X2667D01*
X-2993Y857D02*
X-3038Y902D01*
X-3128D01*
X-3173Y857D01*
Y677D01*
X-3128Y632D01*
X-3038D01*
X-2993Y677D01*
X-2903D02*
X-2858Y632D01*
X-2768D01*
X-2723Y677D01*
Y857D01*
X-2768Y902D01*
X-2858D01*
X-2903Y857D01*
Y812D01*
X-2858Y767D01*
X-2723D01*
X713Y2505D02*
X668Y2460D01*
Y2370D01*
X713Y2325D01*
X893D01*
X938Y2370D01*
Y2460D01*
X893Y2505D01*
X713Y2595D02*
X668Y2640D01*
Y2730D01*
X713Y2775D01*
X758D01*
X803Y2730D01*
X848Y2775D01*
X893D01*
X938Y2730D01*
Y2640D01*
X893Y2595D01*
X848D01*
X803Y2640D01*
X758Y2595D01*
X713D01*
X803Y2640D02*
Y2730D01*
X1660Y2430D02*
X1840Y2160D01*
Y2430D02*
X1660Y2160D01*
X1930D02*
X2020D01*
X1975D01*
Y2430D01*
X1930Y2385D01*
X2463Y2505D02*
X2418Y2460D01*
Y2370D01*
X2463Y2325D01*
X2643D01*
X2688Y2370D01*
Y2460D01*
X2643Y2505D01*
X2688Y2595D02*
Y2685D01*
Y2640D01*
X2418D01*
X2463Y2595D01*
X2577Y907D02*
X2532Y952D01*
X2442D01*
X2397Y907D01*
Y727D01*
X2442Y682D01*
X2532D01*
X2577Y727D01*
X2667Y952D02*
X2847D01*
Y907D01*
X2667Y727D01*
Y682D01*
X-327Y-1658D02*
X-372Y-1703D01*
Y-1793D01*
X-327Y-1838D01*
X-148D01*
X-103Y-1793D01*
Y-1703D01*
X-148Y-1658D01*
X-372Y-1388D02*
Y-1568D01*
X-238D01*
X-283Y-1478D01*
Y-1433D01*
X-238Y-1388D01*
X-148D01*
X-103Y-1433D01*
Y-1523D01*
X-148Y-1568D01*
X-2773Y447D02*
X-2818Y492D01*
X-2908D01*
X-2953Y447D01*
Y267D01*
X-2908Y222D01*
X-2818D01*
X-2773Y267D01*
X-2548Y222D02*
Y492D01*
X-2683Y357D01*
X-2503D01*
X-1482Y1482D02*
X-1213D01*
Y1662D01*
Y1932D02*
Y1752D01*
X-1393Y1932D01*
X-1437D01*
X-1482Y1887D01*
Y1797D01*
X-1437Y1752D01*
X-530Y3275D02*
X-575Y3320D01*
X-665D01*
X-710Y3275D01*
Y3095D01*
X-665Y3050D01*
X-575D01*
X-530Y3095D01*
X-440Y3050D02*
X-350D01*
X-395D01*
Y3320D01*
X-440Y3275D01*
X-215D02*
X-170Y3320D01*
X-80D01*
X-35Y3275D01*
Y3095D01*
X-80Y3050D01*
X-170D01*
X-215Y3095D01*
Y3275D01*
D27*
X-1250Y984D02*
G03*
X-1250Y984I-49J0D01*
G01*
D28*
X-419Y2898D02*
X-341D01*
X-419Y2662D02*
X-341D01*
X-2045Y-1126D02*
Y-654D01*
X-2635Y-1126D02*
Y-654D01*
X-848Y1671D02*
Y1749D01*
X-612Y1671D02*
Y1749D01*
X-2009Y888D02*
X-1931D01*
X-2009Y652D02*
X-1931D01*
D29*
X-1014Y856D02*
X-856Y1014D01*
X856D02*
X1014D01*
Y856D02*
Y1014D01*
Y-1014D02*
Y-856D01*
X856Y-1014D02*
X1014D01*
X-1014D02*
Y-856D01*
Y-1014D02*
X-856D01*
M02*
