G04 Layer_Color=8421504*
%FSLAX24Y24*%
%MOIN*%
G70*
G01*
G75*
%ADD10R,0.0709X0.0394*%
%ADD11R,0.0374X0.0335*%
%ADD12R,0.1378X0.1378*%
%ADD13O,0.0335X0.0118*%
%ADD14O,0.0118X0.0335*%
%ADD15R,0.0256X0.0197*%
%ADD16R,0.0236X0.0197*%
%ADD17R,0.0315X0.0295*%
%ADD18R,0.0295X0.0315*%
%ADD19R,0.0197X0.0236*%
%ADD20R,0.0300X0.0300*%
D10*
X-2340Y-398D02*
D03*
Y-1382D02*
D03*
D11*
X2135Y1454D02*
D03*
Y1906D02*
D03*
X1565D02*
D03*
Y1454D02*
D03*
D12*
X-0Y0D02*
D03*
D13*
X-965Y689D02*
D03*
Y492D02*
D03*
Y295D02*
D03*
Y98D02*
D03*
Y-98D02*
D03*
Y-295D02*
D03*
Y-492D02*
D03*
Y-689D02*
D03*
X965D02*
D03*
Y-492D02*
D03*
Y-295D02*
D03*
Y-98D02*
D03*
Y98D02*
D03*
Y295D02*
D03*
Y492D02*
D03*
Y689D02*
D03*
D14*
X-689Y-965D02*
D03*
X-492D02*
D03*
X-295D02*
D03*
X-98D02*
D03*
X98D02*
D03*
X295D02*
D03*
X492D02*
D03*
X689D02*
D03*
Y965D02*
D03*
X492D02*
D03*
X295D02*
D03*
X98D02*
D03*
X-98D02*
D03*
X-295D02*
D03*
X-492D02*
D03*
X-689D02*
D03*
D15*
X1826Y-397D02*
D03*
X2200D02*
D03*
D16*
X-2547Y-1790D02*
D03*
X-2153D02*
D03*
X-2547Y10D02*
D03*
X-2153D02*
D03*
X1947Y820D02*
D03*
X1553D02*
D03*
X1553Y480D02*
D03*
X1947D02*
D03*
X-2057Y360D02*
D03*
X-1663D02*
D03*
D17*
X-480Y1976D02*
D03*
Y1444D02*
D03*
D18*
X-1704Y770D02*
D03*
X-2236D02*
D03*
D19*
X800Y1877D02*
D03*
Y1483D02*
D03*
X-800Y-1807D02*
D03*
Y-1413D02*
D03*
X1453Y-394D02*
D03*
Y-0D02*
D03*
X1150Y1877D02*
D03*
Y1483D02*
D03*
X2550Y1483D02*
D03*
Y1877D02*
D03*
D20*
X2671Y-394D02*
D03*
M02*
