M48
;Layer_Color=9474304
;FILE_FORMAT=2:4
INCH,TZ
;TYPE=PLATED
T1F00S00C0.0120
T2F00S00C0.0130
%
T01
X-3160Y-1930
Y-1380
X-2790Y-80
X-2620Y750
X-2720Y1150
X-3160Y1490
X-2098Y1448
X-2070Y1790
X-2280Y2890
X-3160Y2920
Y3520
X-1680Y3520
X-910Y3520
X-134Y3520
Y2910
X-130Y2270
X-350Y1640
X-1300Y1552
X1310Y1580
X1270Y2007
X1590Y2330
X1930
X2310Y2410
X3340Y2920
Y3520
X3340Y1290
X2930Y1272
X2590Y1010
Y680
X2372Y138
X2400Y-530
X2020Y-750
Y-1930
X3340
X3340Y-527
Y133
X1090Y3520
X-1180Y-1181
X-1310Y-1940
X-940Y-1930
T02
X-709Y-709
X-236
Y-236
X-709
Y236
Y709
X-236
Y236
X236
Y709
X709
Y236
Y-236
X236
Y-709
X709
M30
