M48
;Layer_Color=9474304
;FILE_FORMAT=2:4
INCH,TZ
;TYPE=PLATED
T1F00S00C0.0120
T2F00S00C0.0130
%
T01
X-3160Y-1930
Y-1380
X-2790Y-80
X-2620Y750
X-2720Y1150
X-3160Y1490
Y2240
Y2950
X-2130Y2240
X-2098Y1448
X-1658Y1660
X-390Y1630
X-460Y2950
X790
Y1840
X1312Y2010
Y1580
X1592Y2330
X1942
X2312Y2410
X3342Y2950
X3342Y1293
X2932Y1273
X2590Y1010
Y680
X2372Y138
X2400Y-530
X2020Y-750
X2030Y-1930
X3340
X3337Y-527
Y133
X-1180Y-1181
X-1310Y-1940
X-940Y-1930
X-1840Y2950
T02
X-709Y-709
X-236
X236
X709
Y-236
X236
X-236
X-709
Y236
X-236
Y709
X-709
X236
Y236
X709
Y709
M30
