G04 Layer_Color=8388736*
%FSLAX24Y24*%
%MOIN*%
G70*
G01*
G75*
%ADD31R,0.0769X0.0454*%
%ADD32R,0.0434X0.0395*%
%ADD33R,0.1910X0.1910*%
%ADD34O,0.0139X0.0316*%
%ADD35O,0.0316X0.0139*%
%ADD36R,0.0316X0.0257*%
%ADD37R,0.0296X0.0257*%
%ADD38R,0.0257X0.0296*%
%ADD39R,0.0355X0.0375*%
%ADD40R,0.0360X0.0360*%
D31*
X-2940Y342D02*
D03*
Y-642D02*
D03*
D32*
X2927Y1584D02*
D03*
Y2036D02*
D03*
X2356D02*
D03*
Y1584D02*
D03*
D33*
X0Y0D02*
D03*
D34*
X-866Y1191D02*
D03*
X-709D02*
D03*
X-551D02*
D03*
X-394D02*
D03*
X-236D02*
D03*
X-79D02*
D03*
X79D02*
D03*
X236D02*
D03*
X394D02*
D03*
X551D02*
D03*
X709D02*
D03*
X866D02*
D03*
Y-1191D02*
D03*
X709D02*
D03*
X551D02*
D03*
X394D02*
D03*
X236D02*
D03*
X79D02*
D03*
X-79D02*
D03*
X-236D02*
D03*
X-394D02*
D03*
X-551D02*
D03*
X-709D02*
D03*
X-866D02*
D03*
D35*
X1191Y866D02*
D03*
Y709D02*
D03*
Y551D02*
D03*
Y394D02*
D03*
Y236D02*
D03*
Y79D02*
D03*
Y-79D02*
D03*
Y-236D02*
D03*
Y-394D02*
D03*
Y-551D02*
D03*
Y-709D02*
D03*
Y-866D02*
D03*
X-1191D02*
D03*
Y-709D02*
D03*
Y-551D02*
D03*
Y-394D02*
D03*
Y-236D02*
D03*
Y-79D02*
D03*
Y79D02*
D03*
Y236D02*
D03*
Y394D02*
D03*
Y551D02*
D03*
Y709D02*
D03*
Y866D02*
D03*
D36*
X2023Y-200D02*
D03*
X2397D02*
D03*
D37*
X-3137Y-1060D02*
D03*
X-2743D02*
D03*
X2277Y1030D02*
D03*
X1883D02*
D03*
X1883Y680D02*
D03*
X2277D02*
D03*
X-1317Y-1610D02*
D03*
X-923D02*
D03*
X-2297Y740D02*
D03*
X-1903D02*
D03*
D38*
X-2380Y-17D02*
D03*
Y377D02*
D03*
X1592Y2007D02*
D03*
Y1613D02*
D03*
X1650Y-197D02*
D03*
Y197D02*
D03*
X1942Y2007D02*
D03*
Y1613D02*
D03*
X3342Y1613D02*
D03*
Y2007D02*
D03*
D39*
X-1284Y1660D02*
D03*
X-753D02*
D03*
X-1834Y1150D02*
D03*
X-2366D02*
D03*
D40*
X3347Y-197D02*
D03*
M02*
