M48
;Layer_Color=9474304
;FILE_FORMAT=2:4
INCH,TZ
;TYPE=PLATED
T1F00S00C0.0120
%
T01
X-3010Y-1770
Y-900
X-2340Y-890
X-2390Y360
X-2600Y770
X-2880Y10
X-3000Y1800
X-3010Y3240
X-1600
X-310
X630
X1770
X2670
Y2210
X1560Y2290
X1150Y2210
X800
X590Y1590
X-70Y1870
X-470Y2340
X-1700Y1800
X-1690Y1120
X-1160Y1240
X-472Y472
Y0
Y-472
X0
X472
Y0
Y472
X0
Y0
X1470Y-740
X2203Y-727
X2670Y-730
Y-60
X2370
X2260Y480
Y810
X2530Y1150
X2670Y-1770
X1330
X-1080
Y-1413
M30
