G04 Layer_Physical_Order=1*
G04 Layer_Color=255*
%FSLAX24Y24*%
%MOIN*%
G70*
G01*
G75*
%ADD10R,0.0256X0.0197*%
%ADD11R,0.0295X0.0315*%
%ADD12R,0.0236X0.0197*%
%ADD13R,0.0709X0.0394*%
%ADD14R,0.0374X0.0335*%
%ADD15R,0.1378X0.1378*%
%ADD16O,0.0335X0.0118*%
%ADD17O,0.0118X0.0335*%
%ADD18R,0.0315X0.0295*%
%ADD19R,0.0197X0.0236*%
%ADD20R,0.0300X0.0300*%
%ADD21C,0.0090*%
%ADD22C,0.0100*%
%ADD23C,0.0060*%
%ADD24C,0.0200*%
%ADD25C,0.0300*%
%ADD26C,0.0240*%
G36*
X-23Y2182D02*
X10D01*
Y1334D01*
X6Y1331D01*
X-7Y1315D01*
X-18Y1298D01*
X-26Y1279D01*
X-28Y1270D01*
X-30Y1265D01*
X-48Y1248D01*
Y1134D01*
X-53Y1122D01*
X-59Y1098D01*
X-61Y1073D01*
Y965D01*
X-136D01*
Y1073D01*
X-138Y1098D01*
X-144Y1122D01*
X-148Y1134D01*
Y1273D01*
X-150Y1275D01*
Y2182D01*
X-123D01*
Y2380D01*
X-23D01*
Y2182D01*
D02*
G37*
G36*
X2790Y-1890D02*
X1213D01*
Y-1019D01*
X1314Y-918D01*
X1327Y-902D01*
X1338Y-885D01*
X1346Y-866D01*
X1351Y-846D01*
X1352Y-825D01*
Y-627D01*
X1367Y-612D01*
X1416D01*
X1427Y-614D01*
X1453Y-616D01*
X1806D01*
X1832Y-614D01*
X1851Y-610D01*
X2250D01*
Y-595D01*
X2671D01*
X2677Y-594D01*
X2790D01*
Y-1890D01*
D02*
G37*
G36*
X-1048Y-1631D02*
X-1003Y-1662D01*
X-998Y-1671D01*
Y-1757D01*
X-800D01*
Y-1857D01*
X-998D01*
Y-1890D01*
X-1160D01*
Y-1667D01*
X-1110Y-1632D01*
X-1109Y-1632D01*
X-1080Y-1634D01*
X-1051Y-1632D01*
X-1048Y-1631D01*
X-1048D01*
D02*
G37*
G36*
X2600Y1265D02*
X2748D01*
X2790Y1244D01*
Y-194D01*
X2677D01*
X2671Y-194D01*
X2250D01*
Y300D01*
X2165D01*
Y430D01*
X1947D01*
Y530D01*
X2165D01*
Y622D01*
X2165D01*
Y770D01*
X1947D01*
Y820D01*
X1897D01*
Y1035D01*
X1883Y1068D01*
X1942Y1128D01*
X1955Y1143D01*
X1966Y1161D01*
X1974Y1180D01*
X1976Y1186D01*
X2085D01*
Y1454D01*
X2185D01*
Y1186D01*
X2422D01*
Y1265D01*
X2500D01*
Y1483D01*
X2600D01*
Y1265D01*
D02*
G37*
G36*
X2790Y2116D02*
X2748Y2095D01*
X2422D01*
Y2174D01*
X1615D01*
Y1906D01*
X1515D01*
Y2174D01*
X1278D01*
Y2095D01*
X1200D01*
Y1877D01*
X1100D01*
Y2095D01*
X850D01*
Y1877D01*
X800D01*
Y1827D01*
X594D01*
X555Y1812D01*
X510Y1843D01*
Y3360D01*
X2790D01*
Y2116D01*
D02*
G37*
G36*
X10Y3037D02*
X-64D01*
Y2780D01*
X-164D01*
Y3037D01*
X-362D01*
Y3037D01*
X-398D01*
Y3037D01*
X-893D01*
Y2924D01*
X-903Y2924D01*
X-925Y2918D01*
X-946Y2910D01*
X-965Y2898D01*
X-983Y2883D01*
X-1287Y2578D01*
X-1465D01*
Y2182D01*
X-987D01*
Y1728D01*
X-987D01*
Y1692D01*
X-987D01*
Y1197D01*
X-871D01*
X-845Y1151D01*
X-864Y1115D01*
X-1165D01*
X-1189Y1113D01*
X-1212Y1108D01*
X-1234Y1099D01*
X-1254Y1086D01*
X-1272Y1071D01*
X-1407Y936D01*
X-1457Y957D01*
Y1027D01*
X-1457Y1027D01*
X-1474Y1077D01*
X-1471Y1091D01*
X-1470Y1120D01*
X-1471Y1149D01*
X-1477Y1177D01*
X-1486Y1204D01*
X-1499Y1230D01*
X-1515Y1254D01*
X-1534Y1276D01*
X-1556Y1295D01*
X-1580Y1311D01*
X-1606Y1324D01*
X-1633Y1333D01*
X-1661Y1339D01*
X-1690Y1340D01*
X-1719Y1339D01*
X-1747Y1333D01*
X-1774Y1324D01*
X-1800Y1311D01*
X-1824Y1295D01*
X-1846Y1276D01*
X-1865Y1254D01*
X-1881Y1230D01*
X-1894Y1204D01*
X-1903Y1177D01*
X-1909Y1149D01*
X-1910Y1120D01*
X-1909Y1091D01*
X-1906Y1077D01*
X-1916Y1061D01*
X-1952Y1027D01*
X-1988D01*
Y1027D01*
X-2186D01*
Y770D01*
X-2236D01*
Y720D01*
X-2483D01*
Y513D01*
X-2275D01*
Y410D01*
X-2057D01*
Y310D01*
X-2275D01*
Y208D01*
X-2497D01*
Y10D01*
X-2547D01*
Y-40D01*
X-2765D01*
Y-101D01*
X-2794D01*
Y-695D01*
X-2020D01*
Y-816D01*
X-2290Y-1085D01*
X-2794D01*
Y-1679D01*
X-2765D01*
Y-1740D01*
X-2547D01*
Y-1840D01*
X-2765D01*
Y-1890D01*
X-3130D01*
Y3360D01*
X10D01*
Y3037D01*
D02*
G37*
%LPC*%
G36*
X2165Y1018D02*
X1997D01*
Y870D01*
X2165D01*
Y1018D01*
D02*
G37*
G36*
X750Y2095D02*
X602D01*
Y1927D01*
X750D01*
Y2095D01*
D02*
G37*
G36*
X-2597Y208D02*
X-2765D01*
Y60D01*
X-2597D01*
Y208D01*
D02*
G37*
G36*
X-2286Y1027D02*
X-2483D01*
Y820D01*
X-2286D01*
Y1027D01*
D02*
G37*
%LPD*%
D10*
X-1237Y2380D02*
D03*
X-863D02*
D03*
X1826Y-397D02*
D03*
X2200D02*
D03*
D11*
X-114Y2780D02*
D03*
X-646D02*
D03*
X-1704Y770D02*
D03*
X-2236D02*
D03*
D12*
X-73Y2380D02*
D03*
X-467D02*
D03*
X-2547Y-1790D02*
D03*
X-2153D02*
D03*
X-2547Y10D02*
D03*
X-2153D02*
D03*
X1947Y820D02*
D03*
X1553D02*
D03*
X1553Y480D02*
D03*
X1947D02*
D03*
X-2057Y360D02*
D03*
X-1663D02*
D03*
D13*
X-2340Y-398D02*
D03*
Y-1382D02*
D03*
D14*
X2135Y1454D02*
D03*
Y1906D02*
D03*
X1565D02*
D03*
Y1454D02*
D03*
D15*
X-0Y0D02*
D03*
D16*
X-965Y689D02*
D03*
Y492D02*
D03*
Y295D02*
D03*
Y98D02*
D03*
Y-98D02*
D03*
Y-295D02*
D03*
Y-492D02*
D03*
Y-689D02*
D03*
X965D02*
D03*
Y-492D02*
D03*
Y-295D02*
D03*
Y-98D02*
D03*
Y98D02*
D03*
Y295D02*
D03*
Y492D02*
D03*
Y689D02*
D03*
D17*
X-689Y-965D02*
D03*
X-492D02*
D03*
X-295D02*
D03*
X-98D02*
D03*
X98D02*
D03*
X295D02*
D03*
X492D02*
D03*
X689D02*
D03*
Y965D02*
D03*
X492D02*
D03*
X295D02*
D03*
X98D02*
D03*
X-98D02*
D03*
X-295D02*
D03*
X-492D02*
D03*
X-689D02*
D03*
D18*
X-730Y1444D02*
D03*
Y1976D02*
D03*
D19*
X800Y1877D02*
D03*
Y1483D02*
D03*
X-800Y-1807D02*
D03*
Y-1413D02*
D03*
X1453Y-394D02*
D03*
Y-0D02*
D03*
X1150Y1877D02*
D03*
Y1483D02*
D03*
X2550Y1483D02*
D03*
Y1877D02*
D03*
D20*
X2671Y-394D02*
D03*
D21*
X-646Y2560D02*
X-295Y2210D01*
X-646Y2560D02*
Y2780D01*
X-295Y965D02*
Y2210D01*
X-880Y2780D02*
X-646D01*
X-1237Y2423D02*
X-880Y2780D01*
X-1237Y2380D02*
Y2423D01*
X-98Y98D02*
Y965D01*
Y98D02*
X0Y0D01*
X1219Y-98D02*
X1317Y-0D01*
X1181Y-295D02*
X1280Y-394D01*
X965Y-295D02*
X1181D01*
X965Y-98D02*
X1219D01*
X305D02*
X965D01*
X1453Y-24D02*
X1456D01*
X1317Y-0D02*
X1453D01*
Y-417D02*
X1456D01*
X1280Y-394D02*
X1453D01*
X276Y-69D02*
X305Y-98D01*
X-73Y2380D02*
Y2739D01*
X-114Y2780D02*
X-73Y2739D01*
D22*
X-863Y2380D02*
X-770Y2287D01*
Y1976D02*
Y2287D01*
Y1444D02*
X-492Y1166D01*
Y965D02*
Y1166D01*
X590Y1590D02*
X697Y1483D01*
X800D01*
X689Y965D02*
Y1372D01*
X800Y1483D01*
X-1704Y770D02*
X-1690Y784D01*
Y1120D01*
X-1080Y-1413D02*
X-800D01*
X-689Y-1302D01*
Y-965D01*
X-1704Y770D02*
X-1360D01*
X-1165Y965D01*
X-689D01*
X-1663Y360D02*
X-1460D01*
X-1131Y689D01*
X-965D01*
D23*
X1150Y1483D02*
X1507D01*
X1130D02*
X1150D01*
X1565Y1425D02*
Y1454D01*
Y1425D02*
Y1425D01*
X1507Y1483D02*
X1565Y1425D01*
X965Y689D02*
Y825D01*
X1565Y1425D01*
X1222Y627D02*
Y910D01*
X1442Y1130D01*
X1760D01*
X1850Y1220D01*
X380Y1320D02*
Y3370D01*
X260Y1270D02*
Y3370D01*
X140Y1280D02*
Y3370D01*
X380Y1320D02*
X492Y1208D01*
Y965D02*
Y1208D01*
X295Y965D02*
Y1235D01*
X260Y1270D02*
X295Y1235D01*
X98Y1238D02*
X140Y1280D01*
X-2230Y-398D02*
X-1977D01*
X-2230D02*
X-2153Y-321D01*
Y10D01*
X-1977Y-398D02*
X-1087Y492D01*
X-2340Y-1382D02*
X-2153Y-1569D01*
Y-1790D02*
Y-1569D01*
X-1890Y-870D02*
Y-481D01*
X-2340Y-1382D02*
Y-1320D01*
X-1890Y-870D01*
Y-481D02*
X-1114Y295D01*
X98Y965D02*
Y1238D01*
X-1290Y-1900D02*
Y-729D01*
X-1250Y-689D02*
X-965D01*
X-1290Y-729D02*
X-1250Y-689D01*
X-1410Y-1900D02*
Y-680D01*
X-1223Y-492D02*
X-965D01*
X-1410Y-680D02*
X-1223Y-492D01*
X-1530Y-1900D02*
Y-630D01*
X-1195Y-295D02*
X-965D01*
X-1530Y-630D02*
X-1195Y-295D01*
X-1650Y-1900D02*
Y-580D01*
X-1168Y-98D02*
X-965D01*
X-1650Y-580D02*
X-1168Y-98D01*
X-1770Y-1900D02*
Y-530D01*
X-1141Y98D02*
X-965D01*
X-1770Y-530D02*
X-1141Y98D01*
X-1114Y295D02*
X-965D01*
X-1087Y492D02*
X-965D01*
X1222Y-825D02*
Y-627D01*
X1083Y-965D02*
X1222Y-825D01*
X965Y-886D02*
Y-689D01*
X886Y-965D02*
X965Y-886D01*
X1083Y-1900D02*
Y-965D01*
X886Y-1900D02*
Y-965D01*
X689Y-1900D02*
Y-965D01*
X492Y-1900D02*
Y-965D01*
X295Y-1900D02*
Y-965D01*
X98Y-1900D02*
Y-965D01*
X-98Y-1900D02*
Y-965D01*
X-295Y-1900D02*
Y-965D01*
X-492Y-1900D02*
Y-965D01*
X1087Y-492D02*
X1222Y-627D01*
X965Y-492D02*
X1087D01*
X1342Y619D02*
X1553Y830D01*
X1342Y467D02*
Y619D01*
X1178Y98D02*
X1560Y480D01*
X1170Y295D02*
X1342Y467D01*
X965Y295D02*
X1170D01*
X1087Y492D02*
X1222Y627D01*
X965Y492D02*
X1087D01*
X965Y98D02*
X1178D01*
X1850Y1660D02*
X2067Y1877D01*
X1850Y1220D02*
Y1660D01*
X2067Y1877D02*
X2550D01*
D24*
X1453Y-415D02*
X1806D01*
D25*
X2203Y-394D02*
X2671D01*
D26*
X472Y472D02*
D03*
Y0D02*
D03*
Y-472D02*
D03*
X0D02*
D03*
X-472D02*
D03*
Y0D02*
D03*
Y472D02*
D03*
X0D02*
D03*
Y0D02*
D03*
X1470Y-740D02*
D03*
X-3010Y-900D02*
D03*
X800Y2210D02*
D03*
X590Y1590D02*
D03*
X-2340Y-890D02*
D03*
X-1690Y1120D02*
D03*
X-70Y1870D02*
D03*
X-1080Y-1413D02*
D03*
X2670Y-730D02*
D03*
X2203Y-727D02*
D03*
X2670Y-60D02*
D03*
X2370D02*
D03*
X2260Y810D02*
D03*
Y480D02*
D03*
X-2600Y770D02*
D03*
X-1080Y-1770D02*
D03*
X-2390Y360D02*
D03*
X-3000Y1800D02*
D03*
X-1700D02*
D03*
X1770Y3240D02*
D03*
X1150Y2210D02*
D03*
X2670D02*
D03*
X1560Y2290D02*
D03*
X2530Y1150D02*
D03*
X1330Y-1770D02*
D03*
X2670D02*
D03*
X-3010D02*
D03*
X-2880Y10D02*
D03*
X-300Y3200D02*
D03*
X-1600Y3240D02*
D03*
X-3010D02*
D03*
X-1160Y1240D02*
D03*
X630Y3240D02*
D03*
X2670D02*
D03*
M02*
